<?xml version="1.0" encoding="UTF-8"?>
<svg xmlns="http://www.w3.org/2000/svg" version="1.1" viewBox="0 0 300 212">
  <defs>
    <style>
      .cls-1 {
        fill: #541a10;
      }

      .cls-2 {
        fill: #c99e8d;
      }

      .cls-3 {
        fill: #995d48;
      }

      .cls-4 {
        fill: #c97961;
      }

      .cls-5 {
        fill: #badac1;
      }

      .cls-6 {
        fill: #983f21;
      }

      .cls-7 {
        fill: #fff;
      }

      .cls-8 {
        fill: #d89b7c;
      }

      .cls-9 {
        opacity: .1;
      }

      .cls-9, .cls-10 {
        fill: #4d7491;
      }

      .cls-11 {
        fill: #d89878;
      }

      .cls-12 {
        fill: #19303f;
      }

      .cls-13 {
        fill: #f7d0be;
      }

      .cls-14 {
        fill: #e04f56;
      }

      .cls-15 {
        fill: #e5b29e;
      }

      .cls-16 {
        fill: #033030;
      }

      .cls-17 {
        fill: #d6e6ed;
      }

      .cls-18 {
        fill: #a9552f;
      }

      .cls-19 {
        fill: #f6dac8;
      }

      .cls-20 {
        fill: #db904d;
      }

      .cls-21 {
        fill: #81aec6;
      }

      .cls-22 {
        fill: #662516;
      }

      .cls-23 {
        fill: #f3b270;
      }

      .cls-24 {
        fill: #87be94;
      }

      .cls-25 {
        fill: #d69876;
      }

      .cls-26 {
        fill: #ed6769;
      }

      .cls-27 {
        fill: #f2afa5;
      }

      .cls-28 {
        fill: #8e3a20;
      }
    </style>
  </defs>
  <!-- Generator: Adobe Illustrator 28.6.0, SVG Export Plug-In . SVG Version: 1.2.0 Build 709)  -->
  <g>
    <g id="Layer_1">
      <g id="Icon12">
        <ellipse class="cls-9" cx="227.63" cy="200.79" rx="72.04" ry="9.35"/>
        <path class="cls-9" d="M144.76,199.51c0,5.16-32.25,9.35-72.04,9.35S.67,204.68.67,199.51s32.25-9.35,72.04-9.35,72.04,4.18,72.04,9.35Z"/>
        <g>
          <g>
            <path class="cls-23" d="M58.39,147.97c0,.44-.03,1.06-.08,1.86-.67,9.51-5.22,42.68-6.19,49.73-.11.77-.65,1.3-1.25,1.21-.29-.04-.83-.35-.97-.77-.74-2.2,2.43-39.2,3.39-50.17.17-1.92.27-3.04.27-3.04,0,0,4.8-4.79,4.84,1.18Z"/>
            <path class="cls-23" d="M28.01,148.61c-.02.31-.06.72-.12,1.22-1.07,8.45-8.14,42.6-9.64,49.83-.16.76-.74,1.25-1.33,1.12-.28-.06-.81-.4-.92-.83-.6-2.27,5.19-39.62,6.83-50.12.27-1.72.97-5.98.97-5.98,0,0,4.57-1.2,4.2,4.76Z"/>
            <path class="cls-23" d="M122.82,200.12c-.11.43-.63.78-.91.85-.59.14-1.18-.34-1.34-1.1-1.51-6.85-9.29-42.28-10.31-50.04-.05-.35-.08-.64-.1-.87-.44-5.96,4.73-1.57,4.73-1.57,0,0,.05.3.15.86,1.13,6.61,8.39,49.44,7.79,51.89Z"/>
          </g>
          <g>
            <path class="cls-20" d="M28.01,148.61c-.02.31-.06.72-.12,1.22h-5.05c.27-1.72.97-5.98.97-5.98,0,0,4.57-1.2,4.2,4.76Z"/>
            <path class="cls-20" d="M58.39,147.97c0,.44-.03,1.06-.08,1.86h-5.02c.17-1.92.27-3.04.27-3.04,0,0,4.8-4.79,4.84,1.18Z"/>
            <path class="cls-20" d="M115.03,148.24v1.59h-4.78c-.05-.35-.08-.64-.1-.87-.44-5.96,4.73-1.57,4.73-1.57,0,0,.05.3.15.86Z"/>
          </g>
          <path class="cls-24" d="M127.24,136.39c-.04.41-.08.7-.08.74-.01.07-.03.14-.04.2-.12.62-.25,1.22-.41,1.8-.06.23-.13.46-.19.68-.07.22-.14.44-.22.66-.35.98-.79,1.88-1.37,2.69-.26.36-.55.7-.87,1.02-.65.65-1.43,1.22-2.39,1.7-.24.12-.49.24-.75.35-1.27.54-2.83,1.11-4.72,1.37H31.12c-13.35,0-24.17-11.56-24.17-25.82v-50.82c0-6.4,4-11.8,9.47-13.5,0,0,0,0,0,0,.3-.09.61-.14.92-.14l57.31-.24c4.35-.02,8.23,2.95,9.61,7.36l8.88,28.42c.08.26.17.52.27.78.03.09.07.17.1.25.02.06.05.12.07.18.03.07.06.14.09.21.39.89.86,1.72,1.41,2.49.03.05.07.1.1.14.09.12.18.23.26.35.05.06.1.13.15.19.41.5.85.96,1.31,1.39.03.03.07.06.1.09.08.07.15.14.23.2.29.25.6.5.91.72.05.04.1.07.16.11.07.05.14.1.21.14.14.1.28.19.43.28.07.04.14.09.22.13.07.04.14.08.2.12.37.21.76.4,1.15.58.08.03.16.07.23.1.08.03.16.06.24.1.08.03.16.06.24.09.13.05.26.09.39.14.06.02.13.04.19.06.09.03.18.06.27.08.06.02.13.03.19.05.08.02.15.04.23.06.1.03.2.05.3.07.12.03.25.05.37.08.03,0,.06.01.09.02.11.02.21.04.31.05.04,0,.08.01.12.02.11.02.23.03.34.05.06,0,.11.01.17.02.06,0,.12.01.18.02h0c.07,0,.14.02.21.02.29.02.58.03.88.03h1.24s.02,0,.02,0c7.45.43,11.54.11,14.48,1.94,1.6.99,2.86,2.62,4.14,5.35,1.08,2.3,1.38,12.25,1.97,20.08.17,2.25.13,4.5-.11,6.74Z"/>
          <rect class="cls-5" x="82.03" y="105.26" width=".58" height="58.1" transform="translate(-52.27 216.17) rotate(-89.8)"/>
          <path class="cls-5" d="M127.24,136.39c-.04.41-.08.7-.08.74-.01.07-.03.14-.04.2-.12.62-.25,1.22-.41,1.8-.06.23-.13.46-.19.68-.07.22-.14.44-.22.66-.35.98-.79,1.88-1.37,2.69-.26.36-.55.7-.87,1.02-.65.65-1.43,1.22-2.39,1.7-.24.12-.49.24-.75.35-1.27.54-2.83,1.11-4.72,1.37h-13.2c8.12-1.11,9.9-5.1,10.92-10.27.08-.4.15-.88.21-1.42.25-2.07.31-4.16.19-6.25-.39-7.32-.68-16.97-2.15-20.1-2.15-4.6-4.01-6.59-7.78-7.34h0c.07,0,.14.02.21.02.29.02.58.03.88.03h1.24s.02,0,.02,0c7.45.43,11.54.11,14.48,1.94,1.6.99,2.86,2.62,4.14,5.35,1.08,2.3,1.38,12.25,1.97,20.08.17,2.25.13,4.5-.11,6.74Z"/>
          <path class="cls-5" d="M26.46,102.5c-5.07,0-8.81-3.48-11.11-10.34-2.11-6.3-2.22-13.22-2.22-14.54,0-.86-.04-1.83-.07-2.85-.21-5.78-.5-13.69,5.06-17.58l.33.48c-5.3,3.71-5.02,11.44-4.81,17.08.04,1.03.07,2,.07,2.88,0,.99.14,24.3,12.75,24.3v.58Z"/>
          <g>
            <g>
              <path class="cls-12" d="M87.61,117.73c8.87,3.83,15.82,9.37,12.44,13.51-2.67,3.27-24.61-1.63-28.04-3.14-3.43-1.51-6.63-5.89-5.39-9.55,1.07-3.17,4.23-5.68,9.05-4.83,4.82.84,9.1,2.79,11.93,4.01Z"/>
              <g>
                <path class="cls-12" d="M105.55,148.15c-2.95-4.33-8.54-8.71-9.57-10.07-1.88-2.5-4.63-5.8-3.93-8.86.33-1.44.68-2.24,1.76-3.14,5.26-4.34,10.98,4.23,15.52,12.73,1.18,2.22,2.14,4.02,3.25,5.33,3.25,3.87-6.19,5.22-7.03,4Z"/>
                <path class="cls-2" d="M124.66,149.54c1.58.21,2.85,1.24,3.05,2.34.26,1.46-1.13,3.08-7.34,2.96-6.61-.13-13.41,3.82-13.56-1.92-.06-2.26-.47-3.52-1.27-4.77,3.38.89,5.49-1.99,7.03-4,3.25,3.87,4.82,4.31,7.01,4.61,2.33.32,3.76.6,5.08.77Z"/>
              </g>
            </g>
            <g>
              <path class="cls-12" d="M83.79,132.14c-6.61.33-20.63,1.16-26.44-1.31-5.11-2.17-4.64-7.24-3.48-10.28.94-2.46,12.92-2.1,12.92-2.1,7.05.58,21.98,3.08,24.38,5.02,2.4,1.94,1.44,8.22-7.39,8.66Z"/>
              <g>
                <path class="cls-12" d="M79.66,149.6c.43-3.69-.43-7.3.06-11.68.7-6.25,2.75-9.01,4.18-11.27,3.7-5.86,9.47-3.35,10.16-.34.69,3.01-2.49,13.29-5.76,22.41-.24.67-.45,1.31-.63,1.93-2.33,7.93-8.26,1.16-8.01-1.05Z"/>
                <path class="cls-2" d="M84.04,167.45c-4.04-5.23-9.78-6.46-6.9-10.93,1.59-2.47,2.26-4.71,2.52-6.92,3,2.2,5.93,1.87,8.01,1.05-2.33,7.93.16,11.15,2.3,12.86,2.31,1.84,3.84,3.14,3.24,4.04-.6.9-5.05,5.22-9.17-.1Z"/>
              </g>
            </g>
            <path class="cls-2" d="M82.52,95.03c-2.88,1-6.77-.48-10.45-2.68-.1-.4-.15-.81-.14-1.24.04-4.02,1.85-6.61,3.29-8.23,10.59,5.92,11.11,10.82,7.3,12.14Z"/>
            <path class="cls-17" d="M79.39,84.99c-3.45-4.28-11.9-10.02-13.37-10.49-2.53-.8-4.66-.86-6.03.37-2.35,2.1-.95,6.66,1.56,9.2,1.41,1.43,8.16,5.46,12.9,8.29-.1-.4,2.3-5.14,4.95-7.37Z"/>
            <path class="cls-17" d="M69.76,76.44c1.71,3.02,1.17,9.68,1.54,16.6.36,6.92,4.07,20.11,2.65,23.54-.96,2.3-9.48,5.68-15.16,8.18-2.77,1.22-3.25,5.6-4.93,3.56-4.47-5.39-5.79-14.99-7.32-27.17-1.52-12.18.95-17.49,3.9-20.69,2.95-3.2,6.95-7.5,6.95-7.5,0,0,7.37-.61,9.64.27,2.26.88,2.74,3.2,2.74,3.2Z"/>
            <g>
              <path class="cls-7" d="M66.97,120.01l-.17-.26c3.64-2.37,5.5-6.89,4.98-12.09l.31-.03c.53,5.32-1.38,9.95-5.12,12.39Z"/>
              <path class="cls-7" d="M61.59,121.37l-.31-.04c.15-1.1,1.43-1.59,2.91-2.16,1.96-.75,4.39-1.68,5.12-4.39l.31.08c-.76,2.86-3.28,3.83-5.31,4.6-1.44.55-2.58.99-2.7,1.91Z"/>
              <path class="cls-7" d="M52.97,103.93c-.68-1.88-.51-3.72.44-4.69.69-.71,1.73-.88,2.92-.48l-.1.3c-1.08-.36-1.98-.23-2.59.4-.87.89-1.01,2.6-.37,4.37l-.3.11Z"/>
              <path class="cls-7" d="M53.7,111.05c-.08-1.46-.72-3.06-1.33-4.61-.92-2.33-1.88-4.73-1.12-6.88l.3.11c-.72,2.04.21,4.39,1.12,6.66.62,1.58,1.27,3.2,1.36,4.71l-.32.02Z"/>
            </g>
            <path class="cls-17" d="M60.43,108.21c-5.77-5.96-10.49-15.75-11.32-18.11-1.25-3.53,1.52-8.85,5.08-9.9,2.09-.61,6.17,1.04,7.9,3.27.9,1.15,4.97,9.1,7.6,16.44,0,0-2.24.29-4.43,2.32-1.45,1.34-4.83,5.98-4.83,5.98Z"/>
            <path class="cls-7" d="M60.32,108.32c-5.83-6.04-10.6-16.02-11.36-18.17l.3-.11c.75,2.13,5.49,12.05,11.29,18.05l-.23.22Z"/>
            <path class="cls-7" d="M68.98,98.43c-2.12-6.72-6.56-14.29-7.01-14.87-1.69-2.17-5.67-3.82-7.73-3.21l-.09-.3c2.17-.64,6.32,1.07,8.07,3.32.45.58,4.92,8.21,7.06,14.97l-.3.1Z"/>
            <g>
              <path class="cls-2" d="M85.08,117.54c2.62-.36,7.39-1.19,8.51-.65,1.12.53,3,2.6,3.75,3.86.75,1.26.89,4.23.83,4.71s-.61.82-1.14.31c0,0,.33,1.3-.53,1.55-.86.25-.88-.37-.88-.37,0,0-.91,1.31-1.49-.19-.59-1.5-.46-1.89-.46-1.89,0,0-.34,1.65-1.09,1.21s-.63-1.65-.99-2.36c-.36-.71-.93-.94-1.87-.98-.94-.04-5.26.34-6.49-1.64s.86-3.24,1.24-3.39c.38-.15.61-.17.61-.17Z"/>
              <path class="cls-25" d="M94.81,119.02l.21-.17c.98,1.22,1.67,2.47,1.77,2.88.07.27.12,1.08.18,1.94.05.78.1,1.59.16,1.87l-.27.06c-.07-.3-.12-1.08-.17-1.91-.05-.81-.11-1.65-.17-1.9-.08-.34-.73-1.54-1.72-2.77Z"/>
              <path class="cls-25" d="M95.49,126.81s-.02-1.96-.1-3.17c-.08-1.21-.47-1.98-1.34-3.59l.24-.13c.89,1.65,1.29,2.44,1.37,3.71.08,1.21.1,3.16.1,3.18h-.27Z"/>
              <path class="cls-25" d="M93.56,124.56v-.09c-.07-1.04-.12-2.02-1-3.39l.23-.15c.91,1.43.97,2.5,1.03,3.52v.09s-.27.02-.27.02Z"/>
            </g>
            <path class="cls-2" d="M86.09,117.53s-4.75-3.66-8.15-6.05c-3.65-2.57-7.4-8.22-11.75-3.56-1.95,2.09.48,4.6,1.83,6.07,4.03,4.4,10.01,6.12,16.51,7.8,0,0,.01-.87.79-2.56l.78-1.69Z"/>
            <path class="cls-2" d="M70.34,114c-2.67-.19-6.56-3.5-9.41-6.45,1.97-3.2,5.12-6.84,8.18-7.55,2.46,6.88,5.13,14.28,1.23,14Z"/>
            <path class="cls-7" d="M69.52,87.16l-.27-.02c.11-1.88-.66-5.56-1.34-7.14l.25-.11c.69,1.61,1.47,5.35,1.36,7.26Z"/>
            <g>
              <path class="cls-1" d="M81.6,60.11s1.7-1.82.8-6.75c-.8-4.41-5.38-9.09-8.88-9.94-3.81-.93-6.22-.64-6.22-.64,0,0,.78-.75,1.52-.65,0,0-1.52-1.24-4.44-.28-2.92.96-3.62,2.26-3.62,2.26,0,0-.43-1.38.27-1.75,0,0-4.04.43-4.89,4.84,0,0-5,.64-4.73,4.95,0,0,.64-1.6,1.81-1.22,0,0-2.55,4.72-.43,9.2,2.44,5.13,4.86,7.6,4.86,7.6l2.04,2.56,21.92-10.16Z"/>
              <path class="cls-1" d="M79.29,65.13c.81.37,1.75-.18,1.75-.18,0,0-.41.86-1.69.78s-.06-.61-.06-.61Z"/>
              <path class="cls-2" d="M81.02,57.04c.89,1.63.74,2.86-.33,5.19-1.08,2.34-2.02,4.57-1.14,6.07.27.46.42.83.52,1.12.2.59-.69,1.43-1.67,1.63,0,0-1.46,5.22-4.28,6.04-2.82.82-5.38-.67-5.38-.67,0,0-2.45,1.87-2.96,3.35,0,0-5.14,3.06-9.95-3.75,0,0,2.64-2.78,1.81-8.33,0,0,1.2.69,2.04.56,0,0-1.11-3.15.69-3.93,1.89-.82,3.06.83,3.06.83,0,0,4.77,1.2,6.3-1.62s3.33-4.68,3.33-4.68c0,0,1.76,2.04,3.98,1.11s3.98-2.93,3.98-2.93Z"/>
              <path class="cls-3" d="M62.78,70.95c-.27,0-.55-.06-.85-.17-1.14-.45-2.13-1.64-2.39-2.47l.26-.08c.24.78,1.19,1.89,2.23,2.3.55.22,1.04.21,1.45-.03l.13.24c-.25.14-.54.22-.84.22Z"/>
              <path class="cls-22" d="M60.91,68.52c-.88-1.32-.59-2.25-.03-2.68.48-.37,1.13-.36,1.46.01l-.21.18c-.23-.26-.72-.25-1.08.03-.23.17-.89.85.09,2.31l-.23.15Z"/>
              <path class="cls-4" d="M73.95,69.16c0,.99-.8,1.79-1.79,1.79s-1.79-.8-1.79-1.79.8-1.79,1.79-1.79,1.79.8,1.79,1.79Z"/>
              <path class="cls-3" d="M68.68,76.56c-.1-.06-2.5-1.41-2.95-2.52l.25-.1c.41,1.02,2.8,2.37,2.83,2.38l-.13.24Z"/>
              <path class="cls-22" d="M74.85,73.38c-.75,0-1.49-.19-1.81-.6l.22-.17c.47.6,2.23.63,3.06.19l.13.24c-.41.22-1.01.33-1.59.33Z"/>
              <path class="cls-22" d="M75.1,74.26c-.19,0-.4-.04-.6-.15l.13-.24c.58.31,1.18-.09,1.18-.1l.15.23s-.39.26-.86.26Z"/>
              <path class="cls-1" d="M74.85,63.96c.66-.5,2.47-1.1,3.54-.7,1.08.39.21,1.08-.56,1.08s-1.82-.12-2.44.31c-.62.43-.99.35-.93,0,.06-.35.39-.68.39-.68Z"/>
              <path class="cls-1" d="M77.02,66.22c0,.46-.4.83-.9.83s-.9-.37-.9-.83c0-.05,0-.11.02-.16.52-.03,1.14-.16,1.63-.31.1.13.15.29.15.47Z"/>
              <path class="cls-1" d="M74.6,66.28c.62.2,2.43-.05,3.16-.93,0,0-.95.34-1.64.41-.69.07-.86.09-1.34.09-.3,0-.3.2-.3.29,0,.07.05.13.12.15Z"/>
              <path class="cls-22" d="M77.23,70.58c-.35-.25-.54-.82-.04-1.67l.23.14c-.41.69-.29,1.13-.04,1.31l-.16.22Z"/>
              <g>
                <path class="cls-28" d="M80.37,54.09c-.46-1.47-1.6-3.65-3.44-5.37l.19-.2c1.88,1.76,3.05,3.99,3.52,5.49l-.26.08Z"/>
                <path class="cls-28" d="M59.05,63.68l-.21-.17s1.71-2.01,3.45-1.03c1.06.59,3.2.8,4.81.09,1.15-.5,1.87-1.36,2.16-2.56l.27.06c-.31,1.27-1.11,2.22-2.32,2.75-1.69.74-3.94.52-5.06-.11-1.55-.87-3.1.95-3.11.97Z"/>
                <path class="cls-28" d="M64.43,61.62c-.08,0-.17,0-.26,0v-.27c2.05.1,2.86-1.11,3.71-2.4.63-.94,1.27-1.92,2.43-2.45l.11.25c-1.09.5-1.71,1.44-2.32,2.35-.82,1.24-1.67,2.52-3.68,2.52Z"/>
              </g>
            </g>
            <g>
              <g>
                <path class="cls-2" d="M84.88,86.01c7.09-3.63,9.68-4.72,10.87-6.42,1.19-1.7,3.79-4.58,4.32-4.67.53-.09,5.56-.3,6.01.48.45.78.4,2.81.02,5.3,0,0,.1,2.32-.42,2.88-.52.56-.8-.09-.8-.09,0,0-.92.95-.91-2.02,0,0-4.92,4.39-7.18,3.94,0,0-6.09,7.25-12.97,9.34-6.88,2.09-6.9-4.67,1.06-8.74Z"/>
                <g>
                  <path class="cls-2" d="M100.12,78.5c1.79-.69,4.18-1.99,4.72-1.39.55.61.02,1.81-1.54,2.46-1.56.65-2.32,2.43-3.38,3.26-.95.75-2.72,1.3-2.72,1.3l2.92-5.63Z"/>
                  <path class="cls-3" d="M97.25,84.31c.07-.02,1.81-.57,2.78-1.33.42-.33.79-.8,1.18-1.29.61-.77,1.24-1.57,2.16-1.95.99-.41,1.67-1.08,1.83-1.78.08-.37,0-.72-.22-.97-.5-.56-1.92.06-3.57.77-.46.2-.93.4-1.36.57l.13.34c.43-.17.91-.37,1.37-.57,1.26-.55,2.82-1.22,3.15-.86.19.21.18.47.14.65-.1.45-.58,1.09-1.61,1.52-1.01.42-1.7,1.29-2.31,2.06-.37.47-.73.92-1.12,1.23-.92.72-2.65,1.26-2.67,1.26l.11.35Z"/>
                  <path class="cls-3" d="M105.07,83.47c-.07-.43-.31-2.28-.23-3.28l-.37-.03c-.09,1.02.14,2.86.23,3.37l.36-.06Z"/>
                </g>
              </g>
              <path class="cls-2" d="M105.24,75.11c1.09.21,6.15.53,6.47,1.69.3,1.09-5.76.62-5.83.81-.06.19-.64-2.49-.64-2.49Z"/>
            </g>
          </g>
          <path class="cls-5" d="M50.84,147.56h13.2c-8.18-1.09-9.97-4.92-11-10.11-1.02-5.19-.71-23.1-2.81-27.59-3.99-8.52-8.14-6.31-22.61-7.54,4.68.54,7.02,2.44,9.41,7.54,2.1,4.49,1.79,22.4,2.81,27.59,1.02,5.19,2.81,9.02,11,10.11h0Z"/>
        </g>
        <g>
          <g>
            <g>
              <path class="cls-23" d="M255,200.21c-.14.42-.69.73-.97.77-.6.09-1.15-.44-1.25-1.21-.9-6.58-5.35-39.14-6.14-49.23-.08-1.05-.13-1.85-.12-2.36.04-5.97,4.84-1.18,4.84-1.18,0,0,.12,1.32.31,3.54,1.01,11.55,4.08,47.5,3.35,49.67Z"/>
              <path class="cls-23" d="M288.9,200.15c-.11.43-.64.77-.92.83-.59.13-1.17-.36-1.33-1.12-1.39-6.7-8.41-40.71-9.6-49.56-.08-.63-.14-1.13-.16-1.48-.37-5.96,4.75-1.51,4.75-1.51,0,0,.1.62.27,1.73,1.39,8.85,7.61,48.77,6.99,51.11Z"/>
              <path class="cls-23" d="M194.73,149.17c-.03.34-.08.8-.16,1.37-1.26,8.67-8.76,42.83-10.24,49.54-.17.76-.75,1.24-1.34,1.1-.28-.06-.8-.41-.91-.84-.56-2.26,5.6-39.02,7.43-49.8.31-1.86.5-2.95.5-2.95,0,0,5.17-4.38,4.73,1.57Z"/>
            </g>
            <g>
              <path class="cls-20" d="M194.73,149.17c-.03.34-.08.8-.16,1.37h-5.07c.31-1.86.5-2.95.5-2.95,0,0,5.17-4.38,4.73,1.57Z"/>
              <path class="cls-20" d="M251.34,147s.12,1.32.31,3.54h-5.02c-.08-1.05-.13-1.85-.12-2.36.04-5.97,4.84-1.18,4.84-1.18Z"/>
              <path class="cls-20" d="M281.91,149.04c-1.55.59-3.18,1.02-4.86,1.27-.08-.63-.14-1.13-.16-1.48-.37-5.96,4.48-3.43,4.48-3.43,0,0,.37,2.53.54,3.64Z"/>
            </g>
            <path class="cls-24" d="M297.94,71.18v50.81c0,14.26-10.82,25.82-24.17,25.82h-85.07c-1.9-.26-3.45-.84-4.72-1.37-.26-.11-.51-.23-.75-.35-.96-.48-1.74-1.05-2.39-1.7-.32-.32-.61-.66-.87-1.02-.59-.81-1.02-1.71-1.37-2.69-.08-.22-.15-.44-.22-.66-.07-.23-.13-.45-.19-.68-.15-.58-.29-1.18-.41-1.8-.01-.07-.03-.13-.04-.2,0-.04-.04-.32-.08-.74-.24-2.24-.27-4.49-.11-6.74.58-7.83.89-17.78,1.97-20.08,1.28-2.73,2.54-4.36,4.14-5.35,2.94-1.83,7.04-1.51,14.48-1.94h1.26c.3,0,.59-.02.88-.04.07,0,.14-.01.21-.02h0c.06,0,.12-.01.18-.02.06,0,.11-.01.17-.02.11-.01.23-.03.34-.05.04,0,.08-.01.12-.02.1-.02.21-.03.31-.05.03,0,.06-.01.09-.02.12-.03.25-.05.37-.08.1-.02.2-.05.3-.07.08-.02.15-.04.23-.06.06-.02.13-.03.19-.05.09-.03.18-.05.27-.08.06-.02.13-.04.19-.06.13-.04.26-.09.39-.14.08-.03.16-.06.24-.09.08-.03.16-.06.24-.1.08-.03.16-.06.23-.1.39-.17.78-.37,1.15-.58.07-.04.14-.08.2-.12.07-.04.15-.09.22-.13.15-.09.29-.18.43-.28.07-.05.14-.09.21-.14.05-.03.1-.07.15-.11.31-.23.62-.46.91-.72.08-.07.16-.13.23-.2.04-.03.07-.06.1-.09.47-.43.91-.9,1.31-1.4.05-.06.1-.12.15-.19.09-.11.18-.23.26-.35.04-.05.07-.1.11-.14.55-.76,1.02-1.6,1.41-2.49.03-.07.06-.14.09-.21.03-.06.05-.12.07-.18.03-.09.07-.17.1-.25.1-.26.18-.52.27-.78l8.88-28.42c1.38-4.41,5.25-7.38,9.61-7.36l57.31.24c.31,0,.62.04.92.14,0,0,0,0,0,0,5.47,1.71,9.47,7.11,9.47,13.51Z"/>
            <path class="cls-5" d="M201.96,147.82h-13.25c-1.9-.26-3.45-.84-4.72-1.37-.26-.11-.51-.23-.75-.35-.96-.48-1.74-1.05-2.39-1.7-.32-.32-.61-.66-.87-1.02-.59-.81-1.02-1.71-1.37-2.69-.08-.22-.15-.44-.22-.66-.07-.23-.13-.45-.19-.68-.15-.58-.29-1.18-.41-1.8-.01-.07-.03-.13-.04-.2,0-.04-.04-.32-.08-.74-.24-2.24-.27-4.49-.11-6.74.58-7.83.89-17.78,1.97-20.08,1.28-2.73,2.54-4.36,4.14-5.35,2.94-1.83,7.04-1.51,14.48-1.94h1.26c.3,0,.59-.02.88-.04.07,0,.14-.01.21-.02h0c-3.77.75-5.63,2.74-7.78,7.34-1.47,3.13-1.76,12.78-2.15,20.1-.11,2.09-.05,4.18.19,6.25.06.54.13,1.02.21,1.42,1,5.05,10.49,10.03,10.98,10.27Z"/>
            <path class="cls-5" d="M278.44,102.71v-.58c12.6,0,12.75-23.31,12.75-24.3,0-.87.04-1.85.07-2.88.21-5.64.49-13.37-4.81-17.08l.33-.48c5.56,3.89,5.27,11.81,5.06,17.58-.04,1.02-.07,1.99-.07,2.85,0,1.32-.11,8.24-2.22,14.54-2.3,6.86-6.04,10.34-11.11,10.34Z"/>
          </g>
          <g>
            <g>
              <path class="cls-13" d="M238.37,191.7c-.34.89-10.16,8.71-15.63,10.38-5.47,1.67-21.66,1.88-21.66,1.88,0,0-.78-1.8,1.45-3.89,1.15-1.08,4.93-2.16,8.5-3.49,3.39-1.26,6.59-2.75,7.13-4.66,1.12-3.91-1.56-9.71-1.56-9.71,0,0-1.34-4.58,1.45-6.14,2.79-1.56,6.25-.78,8.48,1.73,2.23,2.52,3.15,7.08,5.69,8.12,2.54,1.04,6.48,4.88,6.14,5.78Z"/>
              <path class="cls-14" d="M238.37,191.7c-.34.89-10.16,8.71-15.63,10.38-5.47,1.67-21.66,1.88-21.66,1.88,0,0-.78-1.8,1.45-3.89,1.15-1.08,4.93-2.16,8.5-3.49,3.45,2.71,12.16.26,16.85-4.1,4.69-4.35,4.35-6.56,4.35-6.56,2.54,1.04,6.48,4.88,6.14,5.78Z"/>
            </g>
            <g>
              <path class="cls-13" d="M192.53,203.62c-4.67.79-33.43,0-33.43,0,.18-3.27,4.14-4.5,6.44-4.76.66-.08,1.59-.33,2.64-.71,2.63-.94,6-2.61,7.77-4.05,2.47-2.03,5.82-5.73,6.53-10.5,0,0,.97-6.44,6.35-5.73,3.6.47,3.3,5.73,3.3,5.73,0,0-1.18,6.88,0,11.47,1.19,4.59.4,8.56.4,8.56Z"/>
              <path class="cls-14" d="M192.53,203.62c-4.67.79-33.43,0-33.43,0,.18-3.27,4.14-4.5,6.44-4.76.66-.08,1.59-.33,2.64-.71,4.59,2.82,16.66,2.82,23.94-3.08,1.19,4.59.4,8.56.4,8.56Z"/>
            </g>
            <path class="cls-19" d="M216.15,52.23c-4.72,2.14-5.09,10.6-4.95,14.59.12,3.53-1.14,12.81-2.42,17.34-.24.84-1.1,1.33-1.94,1.11-2.32-.61-7.48-1.33-14.14-3.52-20-6.59-14.99,1.53-12.73,3.42,0,0,20.52,11.41,29.36,12.45s12.76-16.16,12.76-16.16c0,0-5.37-7.55-4.55-15.78,1.19-11.98-1.41-13.45-1.41-13.45Z"/>
            <g>
              <path class="cls-10" d="M227.14,106.41c-2.37,4.35-8.12,4.44-17.15,6.24-8.14,1.63-27.58,2.94-30.22,10.92-2.63,7.97-10.54,61.83-10.54,61.83,0,0,3.76-2.11,8.48-1.46,5.81.81,13.23,4.2,18.59,1.46,0,0,1.2-48.92-1.22-50.98,0,0,41.88,8.13,51.73,3.73,9.85-4.39,9.6-12.51,9.78-15.54.17-3.02-4.27-15.47-4.27-15.47,0,0-10.9-3.4-16.96-2.68-6.06.72-8.22,1.94-8.22,1.94Z"/>
              <path class="cls-10" d="M235.25,109.89c-2.37,4.35-4.25,4.67-12.48,5.65-8.24.99-27.34.95-29.97,8.92-2.63,7.97,14.68,61.21,14.68,61.21,0,0,4.97-.91,11.48,0,5.58.78,12.12-.21,15.52-3.46,0,0-8.45-27.29-15.8-39.87,0,0,30,2.31,39.85-2.08,9.85-4.39,5.94-14.35,6.11-17.37.17-3.02,0-14.69,0-14.69,0,0-11.5-2.34-17.56-1.62-6.06.72-11.81,3.32-11.81,3.32Z"/>
              <path class="cls-21" d="M196.76,150.38c-3.76-14.4-5.19-23.15-4.25-26.01,2.25-6.81,16.09-7.93,25.25-8.67,1.84-.15,3.58-.29,4.96-.45l.07.58c-1.4.17-3.14.31-4.99.46-9.01.73-22.62,1.83-24.75,8.27-.9,2.72.57,11.6,4.26,25.68l-.56.15Z"/>
              <rect class="cls-21" x="155.96" y="155.29" width="47.95" height=".58" transform="translate(-4.54 305.76) rotate(-80)"/>
              <path class="cls-21" d="M212.08,178.63c-.64-1.76-15.77-43.08-13.75-50.02l.56.16c-1.96,6.75,13.58,49.22,13.74,49.65l-.55.2Z"/>
            </g>
            <g>
              <path class="cls-26" d="M264.62,108.63c-22.51,11.26-39.58,0-39.58,0,2.64-5.96.88-10.84-1.35-14.33-.59-.93-1.22-1.76-1.81-2.49-2.16-2.69-3.84-4.26-4.94-8.42,0,0,0,0,0,0-.32-1.19-.58-2.61-.8-4.32-.98-7.67,1.35-24.61,0-26.84,0,0,.62-.68,1.42-.97.8-.29,1.89-.27,1.89-.27.88,1.5,12.64-3.22,14.3-4.09,1.66-.87,6.09-.53,9.21.61,3.64,1.33,9.41,3.71,14.36,19.3,4.95,15.58,7.3,41.81,7.3,41.81Z"/>
              <path class="cls-14" d="M238.39,108.1c-5.31-.27-9.33-2-9.88-3.11-.13-.27-.05-.46.02-.55.2-.29.72-.39,1.59-.3,3.77.39,15.9-1.11,18.44-3.25.2-.17.28-.26.31-.31-.26-.11-1.28-.08-2.27-.05-3.39.09-9.69.27-16.11-2.65l.19-.41c6.33,2.87,12.56,2.7,15.91,2.61,1.82-.05,2.57-.07,2.73.35.11.29-.17.58-.46.83-2.67,2.25-14.85,3.76-18.78,3.35-.81-.08-1.12.03-1.17.11-.01.02.01.08.02.09.42.85,4.04,2.58,9.49,2.86l-.02.45Z"/>
            </g>
            <g>
              <path class="cls-13" d="M228.19,53.25c-6.08,2.35-9.4.8-9.4.8,0-.15-.01-.4-.05-.72-.17-1.65-.74-5.09-.74-5.09h0c-.05.01-2.49.54-3.57-.05-1.08-.59-2.84-1.37-5.13-8.06-.85-2.48-1.43-5.12-1.71-7.54-.04-.31-4.01-3.82-.66-9.58,0,0,2.85-6.13,12.47-.94,1.37.74,3.68,4.13,5.86,8.37.14.28,3.91-1.49,4.05-1.2,1.58,3.18,3.77,8.63,1.95,11.7,0,0,1.89,4.04,3.53,5.64,0,0-2.47,5.08-6.6,6.67Z"/>
              <path class="cls-16" d="M213.95,43.43c-.72-.03-1.28-.23-1.49-.32h-.01s.17-.43.17-.43h.02c.71.3,3.18,1.03,5.07-1.87l.38.25c-1.32,2.03-2.95,2.42-4.13,2.37Z"/>
              <path class="cls-27" d="M222.33,37.42c-.37.93-1.43,1.39-2.36,1.02-.93-.37-1.39-1.43-1.02-2.36.37-.93,1.43-1.39,2.36-1.02.93.37,1.39,1.43,1.02,2.36Z"/>
              <path class="cls-16" d="M212.22,41.06c-.24-.01-.46-.05-.64-.14-.31-.15-.47-.41-.47-.76,0-.38.06-.9.13-1.55.17-1.54.41-3.66.08-5.9l.45-.07c.34,2.3.1,4.45-.08,6.02-.07.61-.13,1.14-.13,1.5,0,.17.07.28.22.35.64.32,2.3-.19,2.6-.43l.28.36c-.29.23-1.52.66-2.44.62Z"/>
              <path class="cls-16" d="M217.6,34.14c.01.69-.36,1.25-.83,1.26-.47,0-.86-.54-.87-1.23s.36-1.25.83-1.26c.47,0,.86.54.87,1.23Z"/>
              <path class="cls-16" d="M210.31,34.71c.01.57-.3,1.04-.69,1.05-.39,0-.71-.45-.72-1.03s.3-1.04.69-1.05.71.45.72,1.03Z"/>
              <path class="cls-6" d="M214.49,30.47c1.39-1.09,4.19.12,4.04.76-.15.64-.85.66-1.72.32-.87-.34-1.91-.05-2.24-.04-.45.02-.63-.61-.09-1.03Z"/>
              <path class="cls-6" d="M209.61,30.97c-1.4-1.08-4.19.16-4.03.8.16.64.86.65,1.72.3.86-.35,1.91-.07,2.24-.06.45.01.62-.62.08-1.03Z"/>
              <path class="cls-16" d="M229.02,33.47l-.45-.04c.07-.86-.06-1.49-.36-1.73-.17-.14-.41-.16-.73-.07l-.13-.44c.47-.14.85-.09,1.14.15.54.44.59,1.4.53,2.12Z"/>
              <path class="cls-11" d="M218.06,48.48l-.1-.48s4.76-1.01,7.93-4.05l.34.35c-3.28,3.14-7.97,4.13-8.17,4.17Z"/>
              <g>
                <path class="cls-6" d="M208.94,39.03c-4.05-5.04-4.5-4.54-5.91-7.93-2.79-6.7,2.57-11.04,2.57-11.04,1.27-9.53,14.68-9.77,14.68-9.77-1.65-3.52,2.36-6.65,5.82-6.89,3.45-.24,5.1,3.67,5.4,4.14,2.21,3.4,6.31-.04,8.61,2.14s2.42,6.8,2.85,8.9.93,4.01-1.23,5.6c-2.15,1.59-5.26-.04-5.26-.04,1.38,11.17-4.71,15.58-4.71,15.58-.57-.35.24-1.55-.12-3.32-.36-1.77-2.29-1.4-2.29-1.4,0,0,1.75-4.3-.81-5.04-1.57-.45-2.6,1.37-2.6,1.37-.7-.9-2.15-2.7-2.98-4.61-1.57-4.03-11.43-3.13-11.2-6.68,0,0-.96,1.91-3.72,3.54-2.75,1.63-.23,5.19-.21,8.11.02,2.44,1.09,7.33,1.09,7.33Z"/>
                <g>
                  <path class="cls-18" d="M239.28,23.2c-1.01-.05-1.79-.9-1.82-.94l.34-.31s.74.8,1.59.79c.43,0,.82-.22,1.18-.64.74-.87.33-1.77-.28-3.15-.45-1.02-1.02-2.29-1.2-3.88l.45-.05c.18,1.52.7,2.7,1.17,3.75.63,1.42,1.13,2.54.21,3.63-.44.52-.95.79-1.52.8-.04,0-.08,0-.11,0Z"/>
                  <path class="cls-18" d="M230.45,16.32c-1.47-.07-3.5-3.11-4.43-5.2l.42-.19c1.06,2.38,3.04,5,4.1,4.93,1.25-.07,2.58.11,2.64.12l-.07.45s-1.35-.19-2.55-.12c-.04,0-.07,0-.11,0Z"/>
                  <path class="cls-18" d="M226.45,16c-.55-1.37-2.74-2.57-5.3-2.13l-.08-.45c2.79-.48,5.18.87,5.8,2.41l-.42.17Z"/>
                  <path class="cls-18" d="M212.02,18.45l-.45-.05c.12-1.18,1.16-5.22,9.6-7.83l.13.44c-8.17,2.53-9.17,6.33-9.28,7.44Z"/>
                  <path class="cls-18" d="M205.74,20.26l-.25-.38c.1-.07,2.53-1.67,4.9-.69l-.17.42c-2.14-.89-4.44.63-4.47.64Z"/>
                  <path class="cls-18" d="M233.68,32.51l-.45-.09c1-5.17-.11-7.35-1.67-9.67l.38-.25c1.56,2.32,2.77,4.68,1.74,10.01Z"/>
                </g>
              </g>
            </g>
            <g>
              <path class="cls-13" d="M255.1,64.58c-1.38-4.32-5.51-12.23-8.87-14.03-3.36-1.8-8.45-4.14-11.75-.3-3.3,3.84-3.36,13.91-5.52,23.08-2.16,9.17-2.75,19.83-6.41,20.97,0,0-6.37,2.9-15.31,6-8.11,2.82-6.17,10.05-2.56,10.33,3.61.28,24.66-7.32,27.86-8.65,3.2-1.33,6.05-10.84,6.81-13.4.76-2.57,5.8-17.3,5.8-17.3,0,0,3.12,1.58,6.84-1.52,3.2-2.66,3.09-5.19,3.09-5.19Z"/>
              <path class="cls-8" d="M245.38,71.36l-.43-.15s.51-1.47,1.11-2.89c1.13-2.66,1.63-2.95,2.01-2.87l-.1.44s0,0,0,0c-.4.05-1.59,2.55-2.6,5.46Z"/>
            </g>
            <g>
              <polygon class="cls-17" points="192.67 99.48 167.62 95.93 170.89 60.95 196.31 60.58 192.67 99.48"/>
              <g>
                <path class="cls-23" d="M191.53,78.81c-.56,7.01-5.5,12.33-11.03,11.89-5.54-.44-9.57-6.48-9.01-13.48.56-7.01,5.5-12.33,11.03-11.89,5.54.44,9.57,6.48,9.01,13.48Z"/>
                <path class="cls-12" d="M179,75.68c0,1.23-.7,2.22-1.55,2.22s-1.55-.99-1.55-2.22.7-2.22,1.55-2.22,1.55.99,1.55,2.22Z"/>
                <ellipse class="cls-12" cx="184.29" cy="75.68" rx="1.55" ry="2.22"/>
                <path class="cls-12" d="M175.89,85.47l-.55-.18c.04-.13,1.08-3.14,5.26-3.63,4.2-.5,6.23,3.4,6.25,3.44l-.52.26c-.07-.15-1.88-3.58-5.67-3.13-3.82.45-4.77,3.21-4.78,3.24Z"/>
              </g>
              <g>
                <path class="cls-13" d="M164.76,80.93c.2-2.63.72-2.71,2.96-3.9,2.35-1.25,3.09-1.67,5.76-1.12,2.44.5,4.97.71,5.01,2.29,0,0,3.96.74,1.53,2.94,0,0,2.17,1.93-1.96,2.66,0,0,1.29,1.46-3.17,2.11-4.45.65-6.43,2.66-7.11,2.5-.68-.16-2.13-.95-2.23-2.31,0,0-.83-.96-.47-2.48,0,0-.4-.67-.47-1.43-.06-.66.14-1.25.14-1.25Z"/>
                <path class="cls-8" d="M168.43,79.24l-.09-.32c.16-.04,3.91-1.1,4.76-1.19.85-.09,5,.31,5.18.33l-.03.33s-4.29-.42-5.11-.33c-.82.09-4.67,1.17-4.71,1.18Z"/>
                <path class="cls-8" d="M168.57,81.9l-.06-.32s3.94-.77,6.01-.9c2.09-.14,5.13.13,5.27.17l-.07.32c-.11-.02-3.13-.29-5.18-.16-2.04.13-5.92.89-5.96.9Z"/>
                <path class="cls-8" d="M169.32,84.81l-.08-.32c3.44-.89,8.48-1.02,8.53-1.03v.33s-5.04.14-8.44,1.02Z"/>
              </g>
            </g>
            <g>
              <polygon class="cls-17" points="200.68 124.46 175.77 119.38 179.08 83.99 204.32 85.56 200.68 124.46"/>
              <g>
                <path class="cls-23" d="M199.6,104.74c-1.22,6.92-6.64,11.75-12.11,10.79-5.47-.96-8.91-7.36-7.69-14.28,1.22-6.92,6.64-11.75,12.11-10.79,5.47.96,8.91,7.36,7.69,14.28Z"/>
                <path class="cls-12" d="M187.43,100.43c-.12,1.22-.9,2.14-1.76,2.06s-1.45-1.14-1.34-2.36c.12-1.22.9-2.14,1.76-2.06s1.45,1.14,1.34,2.36Z"/>
                <path class="cls-12" d="M194.24,101.08c-.12,1.22-.9,2.14-1.76,2.06s-1.45-1.14-1.34-2.36.9-2.14,1.76-2.06,1.45,1.14,1.34,2.36Z"/>
                <path class="cls-12" d="M189.36,110.63c-.41,0-.83-.04-1.28-.14-4.12-.89-4.87-3.99-4.89-4.12l.57-.13c.03.12.71,2.87,4.45,3.68,3.73.81,5.85-2.44,5.94-2.58l.49.31s-1.93,2.97-5.28,2.97Z"/>
              </g>
              <g>
                <path class="cls-13" d="M204.78,100.85c-.86-1.44-2.27-3.89-3.79-4.09-1.52-.2-6.28,1.34-6.91,2.12-.63.78-.14,1.65-.14,1.65,0,0-2.47,1.47-2.39,3.01.04.84,1.53,1.12,1.53,1.12,0,0-1.78,1.23-.69,2.37.75.79,2.62.52,2.62.52,0,0-2.67,1.54,1.37,2.41,4.04.87,8.31.68,8.31.68,0,0,.89-3.36.71-6.08s-.62-3.71-.62-3.71Z"/>
                <path class="cls-15" d="M205.36,108.32l-.38-.06c.22-1.42.3-2.66.23-3.68-.18-2.64-.6-3.63-.61-3.64l.35-.16s.46,1.05.64,3.77c.07,1.06,0,2.33-.23,3.77Z"/>
                <path class="cls-8" d="M202.54,100.9s-2.76-1.25-3.72-1.25c-1.01,0-4.03.85-4.46,1l-.12-.36c.32-.11,3.46-1.02,4.57-1.02,1.03,0,3.76,1.23,3.87,1.28l-.15.35Z"/>
                <path class="cls-8" d="M203.14,104.24s-2.99-.73-4.26-.86c-1.23-.13-3.61.59-5.28,1.25l-.14-.36c1.71-.67,4.16-1.4,5.45-1.27,1.29.13,4.18.84,4.3.87l-.08.37Z"/>
                <path class="cls-8" d="M202.36,107.59c-2.78-1.3-6.8-.06-6.84-.05l-.11-.37c.17-.05,4.19-1.3,7.1.07l-.15.35Z"/>
              </g>
            </g>
            <path class="cls-5" d="M254.05,147.78c8.18-1.09,9.97-4.92,11-10.11,1.02-5.19.71-23.1,2.81-27.59,2.39-5.11,4.73-7,9.41-7.54-14.48,1.24-18.63-.98-22.61,7.54-2.1,4.49-1.79,22.4-2.81,27.59-1.02,5.19-2.81,9.02-11,10.11h13.2Z"/>
          </g>
        </g>
      </g>
    </g>
  </g>
</svg>